<svg xmlns="http://www.w3.org/2000/svg" width="32" height="32" viewBox="0 0 32 32"><g transform="rotate(-45 16 16)"><path d="M13.6 23.5 Q16 32 18.4 23.5 Z" fill="#F2994A"/><path d="M14.8 23.5 Q16 28.5 17.2 23.5 Z" fill="#FFD27A"/><g stroke="#fff" stroke-width="1.3" stroke-linejoin="round"><path d="M11 15 L7 21 L7 23 L11 21 Z M21 15 L25 21 L25 23 L21 21 Z" fill="#2F5FE0"/><path d="M13 21 L19 21 L18 23.5 L14 23.5 Z" fill="#37405C"/><path d="M16 2 C20.5 5.5 21.5 10.5 21 16 L21 21 L11 21 L11 16 C10.5 10.5 11.5 5.5 16 2 Z" fill="#6E9BFF"/><circle cx="16" cy="11.5" r="2.2" fill="#fff" stroke="none"/></g></g></svg>
